<svg aria-hidden="true" style="position:absolute;width:0;height:0" xmlns="http://www.w3.org/2000/svg" overflow="hidden"><defs><symbol id="icon-logo1" viewBox="0 0 60 32"><path d="M24.533 7.111l2.598 2.46h7.248v6.862l2.598 2.46V7.112H24.533z"/><path d="M22.4 9.467v11.444h12.089v-4.549l-7.281-6.893-4.808-.003zm9.786 9.771h-7.873v-7.697h.556v7.176h7.317v.521zm-6.305 3.796l.291-.599h.243l-.424.799v.465h-.22v-.465l-.424-.798h.244l.291.599zm1.248.371h-.489l-.102.294h-.228l.477-1.264h.197l.478 1.264h-.229l-.103-.294zm-.428-.177h.366l-.183-.524-.183.524zm1.294.13c0-.058.016-.112.048-.16a.778.778 0 01.188-.175.795.795 0 01-.101-.153l-.002-.005a.32.32 0 01-.029-.126c0-.099.03-.177.09-.235s.141-.087.243-.087c.092 0 .167.027.226.082s.089.121.089.201v.002a.275.275 0 01-.041.145l.001-.001a.477.477 0 01-.13.131l-.002.001-.086.063.244.288a.504.504 0 00.053-.231h.183a.634.634 0 01-.11.383l.186.22H28.8l-.071-.084a.517.517 0 01-.31.102h-.014.001a.438.438 0 01-.3-.099.331.331 0 01-.112-.249v-.012.001zm.418.19a.321.321 0 00.199-.071l-.276-.326-.027.019c-.069.053-.104.113-.104.181 0 .058.019.106.057.142a.207.207 0 00.141.055h.011zm-.116-.814c0 .049.03.11.09.183l.096-.066.027-.022a.157.157 0 00.054-.118v-.005-.001a.11.11 0 00-.037-.083.13.13 0 00-.09-.036h-.01a.123.123 0 00-.093.042.154.154 0 00-.037.1v.006zm2.296.554c-.013.135-.063.24-.149.316s-.202.113-.346.113a.505.505 0 01-.267-.071.481.481 0 01-.176-.201l-.001-.003a.726.726 0 01-.065-.302v-.123c0-.119.021-.224.063-.315a.478.478 0 01.455-.284c.139 0 .252.038.337.114s.134.183.148.321h-.219c-.011-.091-.037-.156-.08-.196s-.105-.061-.187-.061c-.095 0-.169.035-.22.105s-.077.172-.078.306v.112c0 .137.025.241.073.313s.121.108.215.108c.086 0 .151-.02.195-.058s.071-.103.082-.193h.219zm1.206-.188c0 .124-.021.233-.064.326s-.105.165-.184.215a.503.503 0 01-.274.075.508.508 0 01-.274-.075.503.503 0 01-.185-.211l-.001-.003a.739.739 0 01-.066-.308v-.012.001-.071c0-.123.021-.232.065-.326s.106-.166.185-.216c.08-.05.171-.076.274-.076s.194.025.273.075c.08.049.141.121.185.213s.065.201.066.324v.07zm-.22-.066a.553.553 0 00-.08-.322.258.258 0 00-.213-.112h-.012.001-.009a.26.26 0 00-.213.111l-.001.001a.55.55 0 00-.082.315v.073c0 .139.027.246.081.322s.129.114.225.114c.097 0 .172-.037.224-.111s.079-.182.079-.325v-.066z"/></symbol><symbol id="icon-logo2" viewBox="0 0 60 32"><path d="M29.147 7.799h.048c.09 0 .187.009.283.017.466.034.897.101 1.314.201l-.055-.011V6.988a7.522 7.522 0 00-1.3-.207 8.91 8.91 0 00-.513-.025h-.164c-.88.004-1.756.116-2.609.336-.971.242-1.902.621-2.768 1.126v10.097a10.96 10.96 0 012.56-1.011l.078-.017a11.144 11.144 0 012.184-.339l.03-.001h.03c.125-.006.25-.01.379-.011v-1.035a12.208 12.208 0 00-2.963.402l.085-.019c-.348.091-.684.188-1 .297l-.36.122V8.83l.154-.074a9.86 9.86 0 013.712-.953l.027-.001.016-.001.017.001h-.001c.143-.007.287-.011.428-.011h.162c.075.002.149.004.224.008z"/><path d="M31.684 8.865h-.009a9.214 9.214 0 01-1.551-.13l.054.008a8.34 8.34 0 01-.526-.106l.056.011v9.981c.647.16 1.312.238 1.979.233a10.672 10.672 0 002.683-.352l-.074.017a10.547 10.547 0 002.818-1.153l-.049.027V7.485c-.758.421-1.635.773-2.559 1.011l-.078.017c-.896.23-1.817.348-2.742.352zm3.991.172l.36-.121v7.875l-.154.074a9.429 9.429 0 01-1.771.646l-.069.015a9.584 9.584 0 01-2.354.305c-.238 0-.473-.01-.701-.03l-.246-.022V9.68l.287.019c.19.013.411.02.634.02h.026-.001a12.2 12.2 0 003.074-.402l-.085.019c.336-.089.669-.188 1-.299zM24.084 21.764a.53.53 0 00-.382-.162h-.019.001-.008a.593.593 0 00-.227.045l.004-.001a.524.524 0 00-.295.296l-.001.004a.589.589 0 00-.042.223v1.349a.63.63 0 00.053.277.482.482 0 00.32.277.77.77 0 00.202.028.568.568 0 00.559-.568v-.151h-.353v.127a.314.314 0 01-.022.115l.001-.002a.212.212 0 01-.051.076.25.25 0 01-.147.052l-.021.001a.178.178 0 01-.144-.073.313.313 0 01-.047-.167v-.014.001-1.258a.44.44 0 01.043-.202.181.181 0 01.174-.082h-.001.007c.062 0 .116.03.15.076a.283.283 0 01.059.174v.125h.349v-.138-.006a.625.625 0 00-.045-.234l.002.004a.565.565 0 00-.118-.19zm2.095-.015a.623.623 0 00-.401-.149.6.6 0 00-.21.038.556.556 0 00-.322.296l-.001.003a.63.63 0 00-.052.261v1.294a.54.54 0 00.188.446.59.59 0 00.396.151.603.603 0 00.402-.152l-.001.001a.528.528 0 00.133-.181.62.62 0 00.051-.265v-1.294-.012a.626.626 0 00-.053-.253l.002.004a.586.586 0 00-.133-.189zm-.164 1.744l.001.02a.23.23 0 01-.071.167.256.256 0 01-.332-.001.23.23 0 01-.071-.167l.001-.021v.001-1.294l-.001-.02a.23.23 0 01.071-.167.256.256 0 01.332.001.23.23 0 01.071.167l-.001.021v-.001 1.294zm2.916.578v-2.45h-.339l-.445 1.297h-.006l-.449-1.296h-.336v2.449h.35v-1.49h.006l.343 1.053h.174l.346-1.053h.006v1.49h.35zm1.987-2.278a.488.488 0 00-.198-.134.764.764 0 00-.24-.038h-.533v2.45h.349v-.957h.18a.638.638 0 00.315-.067.511.511 0 00.19-.185l.001-.002a.586.586 0 00.08-.213 1.7 1.7 0 00.019-.256v-.023.001a1.377 1.377 0 00-.034-.35.52.52 0 00-.129-.225zm-.18.747a.294.294 0 01-.033.129l.001-.002a.193.193 0 01-.089.085h-.001a.348.348 0 01-.147.031h-.019.001-.159v-.833h.197a.33.33 0 01.143.032l-.002-.001a.2.2 0 01.081.089v.001a.38.38 0 01.031.137v.163c0 .057.004.116 0 .168h-.004zm1.833-.919h-.286l-.54 2.45h.349l.102-.526h.476l.103.526h.349l-.553-2.45zm-.321 1.59l.172-.888h.006l.171.888h-.349zm2.577-.114h-.006l-.527-1.476h-.335v2.45h.349v-1.473h.007l.533 1.473h.329v-2.449h-.349v1.476zm2.132-1.476l-.281.974h-.007l-.281-.974h-.37l.479 1.414v1.035h.349v-1.035l.479-1.414h-.369zm-13.848 3.141h.168v.472h.114v-.472h.167v-.097h-.449v.097zm1.414-.096l-.22.569h.121l.047-.129h.227l.048.129h.124l-.226-.569h-.121zm-.018.343l.077-.211.077.211h-.155zm1.416.016h.132v.073a.214.214 0 01-.135.048h-.008a.145.145 0 01-.113-.054.24.24 0 01-.042-.136v-.013.001c0-.127.055-.19.164-.19l.012-.001a.12.12 0 01.116.09v.001l.112-.022c-.024-.111-.104-.167-.241-.167h-.008a.289.289 0 00-.191.073.276.276 0 00-.082.219v-.001.013c0 .076.028.146.074.201.05.052.12.084.198.084l.019-.001h-.001.01a.339.339 0 00.232-.091v-.224h-.246v.096zm1.427-.359h-.114v.569h.398v-.097h-.283v-.472zm1.207 0h-.115v.569h.115v-.569zm1.18.379l-.233-.38h-.111v.569h.107v-.372l.229.372h.114v-.569h-.105v.38zm1.067-.061h.283v-.097h-.283v-.124h.305v-.097h-.42v.569h.432v-.097h-.316v-.154zm2.587-.094h-.224v-.224h-.114v.569h.114v-.249h.224v.249h.114v-.569h-.114v.224zm1.073.094h.284v-.097h-.284v-.124h.306v-.097h-.42v.569h.431v-.097h-.316v-.154zm1.455 0c.099-.016.149-.068.149-.158l.001-.017a.136.136 0 00-.056-.11.312.312 0 00-.144-.034l-.023.001h.001-.241v.569h.114v-.238h.031c.022 0 .044.005.063.013h-.001c.017.01.031.025.041.042l.124.181h.137l-.069-.111a.398.398 0 00-.125-.136l-.001-.001zm-.115-.079h-.085v-.143h.09l.024-.001c.033 0 .064.005.094.015l-.002-.001a.073.073 0 01.025.056v.002a.077.077 0 01-.03.057.31.31 0 01-.094.014l-.023-.001h.001zm1.213.079h.283v-.097h-.283v-.124h.306v-.097h-.421v.569h.432v-.097h-.317v-.154z"/></symbol><symbol id="icon-logo3" viewBox="0 0 60 32"><path d="M25.367 23.394a.04.04 0 01.028.012l.073.077a.588.588 0 01-.206.145.727.727 0 01-.292.052h-.015a.71.71 0 01-.265-.051l.005.002a.598.598 0 01-.339-.346l-.001-.004a.764.764 0 01-.046-.263v-.01V22.998c0-.095.018-.185.052-.267l-.002.005a.628.628 0 01.361-.351.797.797 0 01.282-.049.713.713 0 01.263.044c.072.03.139.071.197.123l-.061.082a.054.054 0 01-.015.015.041.041 0 01-.022.007h-.003a.062.062 0 01-.027-.009l-.033-.022-.046-.028a.489.489 0 00-.141-.048h-.003a.62.62 0 00-.1-.009h-.016a.526.526 0 00-.199.038l.004-.001a.455.455 0 00-.262.267.619.619 0 00-.038.216.614.614 0 00.038.22c.022.06.057.116.101.163a.414.414 0 00.152.101c.06.024.124.036.188.035a.842.842 0 00.112-.007.42.42 0 00.241-.112.053.053 0 01.035-.014zm2.113-.386a.739.739 0 01-.049.271.624.624 0 01-.35.347l-.004.001a.799.799 0 01-.562-.002l.006.002a.617.617 0 01-.352-.347l-.001-.004a.764.764 0 01.002-.548l-.002.005a.623.623 0 01.139-.213.633.633 0 01.211-.132l.004-.001a.799.799 0 01.562.002l-.006-.002a.617.617 0 01.354.349.73.73 0 01.05.273zm-.192 0v-.011a.63.63 0 00-.036-.21l.001.004a.434.434 0 00-.25-.265L27 22.525a.571.571 0 00-.408.001l.004-.001a.429.429 0 00-.252.263l-.001.003a.706.706 0 000 .436.43.43 0 00.25.264l.003.001a.596.596 0 00.404 0 .415.415 0 00.253-.265.623.623 0 00.035-.218zm1.633.229l.02.049a2.405 2.405 0 01.046-.099l-.001.002.467-.809c.009-.014.017-.023.027-.025s.02-.004.032-.004H29.657v1.316h-.164v-1.008l-.001-.023.001-.024v.001l-.47.821a.074.074 0 01-.066.041h-.027a.078.078 0 01-.068-.04l-.484-.826v1.057h-.158v-1.314H28.365c.011 0 .022.002.032.005h-.001a.05.05 0 01.025.025l.477.81a.212.212 0 01.023.045l.001.002zm1.759-.065v.493h-.183v-1.314h.424c.075 0 .148.01.218.03l-.006-.001a.44.44 0 01.161.082.33.33 0 01.091.129.443.443 0 01-.003.336.367.367 0 01-.098.131h-.001a.445.445 0 01-.159.086l-.003.001a.714.714 0 01-.22.031l-.221-.004zm0-.142h.221a.456.456 0 00.142-.02.304.304 0 00.103-.057.228.228 0 00.062-.085l.001-.002a.27.27 0 00.022-.108v-.004-.013a.248.248 0 00-.019-.095l.001.002a.255.255 0 00-.064-.09.363.363 0 00-.218-.072l-.029.001h.001-.221v.542zm2.458.636h-.147a.071.071 0 01-.038-.012.089.089 0 01-.024-.03l-.124-.318h-.624l-.129.318a.066.066 0 01-.023.029.065.065 0 01-.039.013h-.146l.549-1.317h.19l.556 1.317zm-.905-.489h.516l-.218-.536a.939.939 0 01-.04-.117l-.001-.006-.021.069a.452.452 0 01-.022.06l.002-.004-.216.535zm1.695-.821a.081.081 0 01.028.024l.8.992V22.35h.164v1.317h-.093a.078.078 0 01-.035-.008h.001a.113.113 0 01-.029-.024l-.799-.991a.338.338 0 010 .045v.979h-.164v-1.317h.097c.011 0 .022.002.033.006zm2.34.786v.523h-.183v-.523l-.506-.793h.168c.013 0 .026.004.036.012.01.008.018.018.024.029v.001l.316.511a.765.765 0 01.056.116l.024-.057a.425.425 0 01.031-.06l.312-.515a.131.131 0 01.024-.028.057.057 0 01.036-.013h.169l-.507.796zm-7.437-3.002c.08.01.16.018.241.025 1.234-.526 2.278-1.387 3.001-2.475s1.094-2.355 1.066-3.643l-1.36-1.296c.09.427.142.918.142 1.421a7.17 7.17 0 01-.532 2.72l.017-.048a7.566 7.566 0 01-2.575 3.296z"/><path d="M28.345 20.08l.037.007a7.332 7.332 0 002.719-3.394 6.831 6.831 0 00.473-2.52c0-.619-.081-1.22-.233-1.791l.011.049-1.937-1.845a8.455 8.455 0 01.962 3.944c0 .335-.019.666-.057.991l.004-.04a8.707 8.707 0 01-1.979 4.6zm6.569-4.512a6.689 6.689 0 01-2.279 3.639 7.265 7.265 0 01-1.047.722l-.036.019a6.479 6.479 0 002.525-1.362l-.008.006a6.096 6.096 0 001.615-2.235l.015-.04-.786-.748z"/><path d="M34.606 15.36l-1.119-1.066a6.534 6.534 0 01-1.065 3.463l.015-.025a7.002 7.002 0 01-2.737 2.454h.006c.251 0 .501-.014.751-.043a6.916 6.916 0 002.699-1.887l.007-.008a6.403 6.403 0 001.436-2.847l.008-.043zm-6.099-5.554l-1.334-1.273c-1.193.439-2.219 1.211-2.943 2.215s-1.115 2.193-1.118 3.411c.005 1.347.48 2.652 1.351 3.712s2.089 1.812 3.46 2.139c1.224-1.42 1.94-3.176 2.046-5.011s-.407-3.654-1.461-5.193zm9.182 5.358c-.005-1.597-.673-3.128-1.858-4.257s-2.792-1.766-4.468-1.771a6.51 6.51 0 00-2.265.402l8.17 7.783a5.613 5.613 0 00.422-2.155v-.002z"/></symbol><symbol id="icon-logo4" viewBox="0 0 60 32"><path d="M20.41 13.095h-.001c-.805 0-1.457.636-1.457 1.419v.001c0 .784.652 1.419 1.457 1.419h.001c.804 0 1.456-.636 1.456-1.419v-.001c0-.784-.652-1.419-1.456-1.419zm10.75-.454c-.003-1.089-.447-2.132-1.237-2.902a4.277 4.277 0 00-5.956-.001 4.063 4.063 0 00-1.237 2.903v6.004s8.43-.915 8.431-6.003v-.001zM16 20.616c.004.793.333 1.507.86 2.019l.001.001a2.975 2.975 0 004.144 0l-.001.001a2.823 2.823 0 00.861-2.018V16.44s-5.866.638-5.866 4.177zm2.933.748h-.001a.775.775 0 01-.428-.128l.003.002a.759.759 0 01-.281-.331l-.002-.005a.716.716 0 01-.042-.437l-.001.005a.742.742 0 01.21-.383.775.775 0 01.389-.204l.005-.001a.784.784 0 01.789.319.728.728 0 01.069.708l.002-.005a.75.75 0 01-.416.407.774.774 0 01-.294.057v-.003zm5.988-.464h-.6v.62h-.313v-1.516h.988v.253h-.675v.391h.6v.252zm1.502-.104c0 .149-.026.28-.079.393s-.128.199-.227.26a.615.615 0 01-.326.092h-.013.001a.598.598 0 01-.563-.345l-.002-.004a.882.882 0 01-.083-.375v-.013.001-.075c0-.149.027-.281.08-.394a.595.595 0 01.566-.353.62.62 0 01.336.092c.099.06.175.148.228.261a.902.902 0 01.081.393v.068zm-.317-.069c0-.159-.028-.28-.085-.363a.28.28 0 00-.232-.124h-.013.001-.012a.279.279 0 00-.23.122l-.001.001c-.057.081-.086.201-.086.358v.074c0 .155.028.275.085.361s.139.128.246.128h.012a.276.276 0 00.229-.122l.001-.001c.056-.083.085-.203.085-.361v-.074zm1.33.395v-.009a.158.158 0 00-.062-.126.815.815 0 00-.225-.1 1.586 1.586 0 01-.266-.108l.009.004c-.172-.093-.258-.218-.258-.376 0-.082.023-.155.069-.219s.113-.115.199-.151c.087-.036.184-.054.292-.054s.205.02.289.059a.436.436 0 01.268.41h-.313a.203.203 0 00-.065-.161.269.269 0 00-.185-.059.283.283 0 00-.178.049.152.152 0 00-.064.124v.004c0 .049.025.09.074.124s.123.065.22.094c.178.053.307.12.389.199s.122.178.122.295c0 .132-.05.235-.149.309s-.233.112-.401.112a.77.77 0 01-.319-.064.523.523 0 01-.219-.174l-.001-.002a.448.448 0 01-.075-.249v-.009h.314c0 .167.1.251.3.251a.29.29 0 00.174-.045.148.148 0 00.063-.121v-.006zm1.668-.866h-.465v1.263h-.313v-1.263h-.458v-.253h1.236v.253zm1.092.607h-.6v.406h.704v.251h-1.017v-1.516h1.015v.253h-.702v.361h.6v.245zm.849.102h-.249v.555h-.313v-1.516h.564c.179 0 .317.04.415.12s.146.193.146.338c0 .103-.022.19-.068.26a.455.455 0 01-.2.163l-.003.001.328.62v.015h-.335l-.284-.555zm-.249-.254h.252c.078 0 .139-.02.182-.059a.215.215 0 00.065-.154v-.012.001c0-.071-.021-.128-.061-.169s-.102-.061-.186-.061h-.251v.455zm1.893.274v.534h-.313v-1.516h.592c.114 0 .214.021.3.063a.469.469 0 01.27.44c0 .149-.051.266-.153.352s-.242.128-.422.128h-.274zm0-.253h.279c.083 0 .146-.02.188-.059a.21.21 0 00.066-.166v-.011a.252.252 0 00-.066-.17.247.247 0 00-.181-.071h-.286v.476zm1.977.131h-.6v.406h.704v.251h-1.017v-1.516h1.015v.253h-.702v.361h.6v.245zm1.451-.607h-.465v1.263h-.313v-1.263h-.458v-.253h1.236v.253zm1.091.607h-.6v.406h.704v.251h-1.017v-1.516h1.014v.253h-.702v.361h.6v.245zm.849.102h-.249v.555h-.312v-1.516h.564c.179 0 .317.04.415.12s.146.193.146.338c0 .103-.023.19-.068.26a.455.455 0 01-.2.163l-.003.001.328.62v.015h-.336l-.284-.555zm-.249-.254h.252a.26.26 0 00.182-.059.215.215 0 00.065-.154v-.012.001c0-.071-.021-.128-.062-.169s-.102-.061-.186-.061h-.251v.455zm1.836.411v-.009a.158.158 0 00-.062-.126.815.815 0 00-.225-.1 1.633 1.633 0 01-.267-.108l.009.004c-.172-.093-.258-.218-.258-.376 0-.082.023-.155.069-.219s.113-.115.199-.151a.756.756 0 01.292-.054h.012c.1 0 .196.022.281.061l-.004-.002a.436.436 0 01.268.41h-.313a.203.203 0 00-.065-.161.269.269 0 00-.185-.059.283.283 0 00-.178.049.15.15 0 00-.063.123v.005c0 .049.025.09.074.124s.123.065.22.094c.178.053.307.12.389.199s.122.178.122.295c0 .132-.049.235-.149.309s-.233.112-.401.112h-.01a.757.757 0 01-.313-.066l.005.002a.517.517 0 01-.219-.174l-.001-.002a.446.446 0 01-.075-.249v-.009h.314c0 .167.1.251.3.251a.293.293 0 00.174-.045.147.147 0 00.062-.121v-.007z"/></symbol><symbol id="icon-logo5" viewBox="0 0 60 32"><path d="M21.507 21.788a.557.557 0 01.123.359l.001.027a.57.57 0 01-.191.426h-.001a.825.825 0 01-.554.166h-.974v-2.277h.954a.805.805 0 01.531.153l-.002-.002a.52.52 0 01.186.398l-.001.029v-.001a.528.528 0 01-.111.348.52.52 0 01-.291.178.55.55 0 01.329.195zm-1.143-.344h.408a.383.383 0 00.259-.076.272.272 0 00.088-.2l-.001-.024v.001l.001-.02a.278.278 0 00-.087-.203.388.388 0 00-.235-.078l-.034.001h.001-.401v.597zm.707.873a.28.28 0 00.097-.213l-.001-.019v-.016a.285.285 0 00-.099-.217.415.415 0 00-.251-.083l-.028.001h.001-.427v.626h.433a.428.428 0 00.274-.079zm2.386.45l-.53-.89h-.199v.89h-.457V20.49h.864l.059-.002c.207 0 .397.074.544.197l-.001-.001a.727.727 0 01.062.944l.001-.002a.699.699 0 01-.412.231l.565.91h-.497zm-.73-1.201h.373c.26 0 .389-.115.389-.345l.001-.019a.343.343 0 00-.096-.237.405.405 0 00-.259-.094l-.037.002h.002-.378l.005.693zm3.225.742h-.91l-.161.459h-.479l.836-2.252h.517l.832 2.252h-.479l-.157-.458zm-.122-.345l-.332-.961-.332.961h.665zm3.246.804h-.454l-1.016-1.548v1.548h-.452V20.49h.452l1.016 1.557V20.49h.453v2.277zm2.586-.546a.985.985 0 01-.405.399l-.005.003c-.197.1-.416.149-.637.143h-.807v-2.277H30.65c.219 0 .427.052.61.144l-.008-.004a.963.963 0 01.41.397 1.327 1.327 0 01-.003 1.202l.003-.008zm-.519-.054a.834.834 0 00-.001-1.088l.001.001a.783.783 0 00-.569-.193h.002-.315v1.474h.315a.781.781 0 00.568-.194l-.001.001zM26.236 7.822s5.849 2.217 5.725 5.426v5.427s-5.845-2.219-5.723-5.427l-.002-5.426zm10.936 9.582a7.908 7.908 0 013.681-1.372l.035-.003V14.33a7.684 7.684 0 00-3.698 3.043l-.019.031z"/><path d="M36.509 17.916a8.009 8.009 0 014.325-3.924l.055-.018V9.079s-8.331 3.158-8.154 7.727v7.727s.371-.141.955-.406c0-.247 0-.496.027-.747a8.04 8.04 0 012.781-5.456l.011-.009z"/><path d="M35.717 20.787a8.016 8.016 0 01.291-1.582 7.446 7.446 0 00-1.764 4.659v.008a22.72 22.72 0 001.716-.909l-.114.062a7.775 7.775 0 01-.157-1.577c0-.232.01-.462.029-.69l-.002.03zm.331.027a7.74 7.74 0 00.11 2.074l-.008-.048c2.276-1.367 4.833-3.48 4.735-6.033v-.222a7.452 7.452 0 00-4.333 2.034l.002-.002a7.448 7.448 0 00-.506 2.171l-.002.027z"/></symbol><symbol id="icon-logo6" viewBox="0 0 60 32"><path d="M30.485 15.414a1.152 1.152 0 01-.202-.735v.003-1.061c0-.325.067-.572.202-.741s.366-.253.693-.252c.308 0 .526.072.655.216a.93.93 0 01.193.634v.249h-.55v-.252-.033c0-.076-.006-.15-.017-.222l.001.008a.246.246 0 00-.078-.147.297.297 0 00-.176-.058l-.024.001h.001l-.023-.001a.316.316 0 00-.188.062l.001-.001a.287.287 0 00-.091.16v.002a1.35 1.35 0 00-.022.262v1.287a.706.706 0 00.07.361.266.266 0 00.109.087l.002.001a.276.276 0 00.143.021h-.001a.277.277 0 00.196-.059h-.001a.264.264 0 00.082-.155v-.001c.013-.085.019-.172.017-.258v-.261h.55v.238l.002.066c0 .226-.072.434-.194.604l.002-.003c-.126.158-.342.236-.659.236s-.556-.084-.692-.259zm2.292.011c-.139-.165-.209-.406-.209-.724v-1.116c0-.315.07-.553.209-.715s.371-.242.697-.242c.324 0 .555.081.694.242s.21.4.21.715v1.116c0 .315-.071.556-.212.723s-.371.249-.692.249c-.32 0-.557-.084-.697-.248zm.954-.267a.663.663 0 00.066-.33v-1.366l.001-.037a.649.649 0 00-.068-.291l.002.004a.253.253 0 00-.111-.088l-.002-.001a.269.269 0 00-.146-.018h.001c-.011-.002-.024-.002-.037-.002a.288.288 0 00-.11.022l.002-.001a.272.272 0 00-.112.088l-.001.001a.639.639 0 00-.066.324v1.372a.661.661 0 00.066.33c.032.034.07.062.114.081l.002.001a.36.36 0 00.286-.001l-.002.001a.344.344 0 00.116-.082v-.006zm1.309-2.497h.593l.446 2.059.456-2.059h.577l.058 2.971h-.426l-.045-2.065-.44 2.065h-.342l-.456-2.072-.042 2.072h-.431l.053-2.971zm2.793 0h.923c.532 0 .797.281.797.844 0 .539-.28.807-.84.807h-.314v1.32h-.57l.004-2.971zm.789 1.27a.41.41 0 00.313-.094.518.518 0 00.082-.335l.001-.033c0-.084-.01-.165-.029-.243l.001.007a.228.228 0 00-.042-.082.251.251 0 00-.071-.059l-.001-.001a.544.544 0 00-.224-.048l-.032.001h.001-.221v.887h.221zm1.753-1.27h.612l.628 2.971h-.531l-.124-.685h-.546l-.128.685h-.539l.628-2.971zm.523 1.942l-.213-1.247-.213 1.247h.426zm1.224-1.942h.399l.763 1.695v-1.695h.473v2.971h-.379l-.768-1.769v1.769h-.489l.001-2.971zm2.743 1.839l-.635-1.834h.535l.387 1.178.364-1.178h.523l-.627 1.834v1.133h-.547V14.5zm-13.5 2.431v.155H30.9v1.207h-.195v-1.207h-.467v-.155h1.127zm1.458 1.363h-.154a.062.062 0 01-.038-.013.07.07 0 01-.025-.031l-.134-.324h-.645l-.134.324a.085.085 0 01-.021.037.065.065 0 01-.039.013h-.154l.57-1.362h.198l.577 1.357zm-.944-.506h.538l-.228-.555a.898.898 0 01-.041-.121l-.002-.007-.021.072-.021.057-.226.554zm1.926.372a.955.955 0 00.107 0 .665.665 0 00.178-.042l-.004.002.076-.033v-.306h-.231a.04.04 0 01-.028-.011.03.03 0 01-.011-.024v-.106h.442v.522a.81.81 0 01-.234.109l-.006.001a.84.84 0 01-.138.028h-.005a1.638 1.638 0 01-.164.009h-.008a.798.798 0 01-.286-.053l.005.002a.664.664 0 01-.374-.355l-.002-.004a.73.73 0 01-.052-.273v-.01-.009c0-.099.019-.194.053-.281l-.002.005a.633.633 0 01.375-.358.88.88 0 01.305-.051c.053 0 .106.004.159.012a.687.687 0 01.349.16l-.055.084a.052.052 0 01-.018.018.053.053 0 01-.026.007.06.06 0 01-.035-.011.618.618 0 01-.059-.034l.003.002a.496.496 0 00-.073-.036l-.003-.001a.525.525 0 00-.101-.029l-.004-.001a.735.735 0 00-.137-.012h-.015a.623.623 0 00-.217.039l.004-.001a.477.477 0 00-.167.108.473.473 0 00-.106.17.688.688 0 00.002.459l-.002-.005a.493.493 0 00.28.28.595.595 0 00.226.027zm1.816-.022h.622v.155h-.812V16.93h.195l-.005 1.207zm1.27.155h-.195v-1.362h.195v1.363zm.725-1.355a.088.088 0 01.029.025l.833 1.027-.001-.024.001-.026v.001-1.015h.17v1.368H38.543a.086.086 0 01-.036-.008h.001a.108.108 0 01-.03-.026l-.832-1.026v1.059h-.163v-1.362h.101c.011 0 .022.002.032.006zm2.467-.007v.15h-.691v.45h.56v.144h-.56v.465h.691v.15h-.891v-1.359h.891zm-20.42-8.414l8.652 2.326v8.15l-8.652-2.324V8.518zm-.554-.695v9.242l9.761 2.625v-9.241l-9.761-2.625z"/><path d="M24.34 23.979l-9.762-2.627v-9.241l9.762 2.626v9.242z"/><path d="M19.27 8.412l8.54 2.297-3.632 3.439-8.54-2.298 3.633-3.438zm-.161-.59l-4.531 4.289 9.762 2.626 4.529-4.289-9.761-2.626zm5.78 15.637l3.98-3.769-3.98-1.071v4.84z"/></symbol><symbol id="icon-close" viewBox="0 0 32 32"><path d="M31.439 3.166L28.273 0 15.72 12.553 3.167 0 .001 3.166l12.553 12.553L.001 28.272l3.166 3.166L15.72 18.885l12.553 12.553 3.166-3.166-12.553-12.553L31.439 3.166z"/></symbol><symbol id="icon-close-desktop" viewBox="0 0 18 18"> <path d="M15 4.108L13.892 3 9.5 7.392 5.108 3 4 4.108 8.392 8.5 4 12.892 5.108 14 9.5 9.608 13.892 14 15 12.892 10.608 8.5 15 4.108z"/></symbol><symbol id="icon-envelope" viewBox="0 0 32 32"><path d="M29 4H3C1.346 4 0 5.256 0 6.801v16.803c0 1.544 1.346 2.801 3 2.801h26c1.654 0 3-1.256 3-2.801V6.801C32 5.257 30.654 4 29 4zm0 1.867c.136 0 .265.026.383.072L16 16.767 2.617 5.939c.118-.046.247-.072.383-.072h26zm0 18.67H3c-.552 0-1-.418-1-.934V7.911l13.345 10.796c.188.152.422.228.655.228s.467-.076.655-.228L30 7.911v15.692c0 .515-.448.934-1 .934z"/></symbol><symbol id="icon-facebook" viewBox="0 0 32 32"><path d="M21.329 5.313h2.921V.225C23.746.156 22.013 0 19.994 0c-4.212 0-7.097 2.649-7.097 7.519V12H8.249v5.688h4.648V32h5.699V17.689h4.46l.708-5.688h-5.169V8.082c.001-1.644.444-2.769 2.735-2.769z"/></symbol><symbol id="icon-send" viewBox="0 0 32 32"><path d="M32 0L0 18l10.227 3.788L26 7 14.002 23.186l.01.004-.012-.004V32l5.735-6.691L27 28l5-28z"/></symbol><symbol id="icon-instagram" viewBox="0 0 32 32"><path d="M31.969 9.408c-.075-1.7-.35-2.869-.744-3.882a7.806 7.806 0 00-1.851-2.838A7.867 7.867 0 0026.542.844C25.523.45 24.36.175 22.66.1 20.947.019 20.403 0 16.059 0s-4.888.019-6.595.094c-1.7.075-2.869.35-3.882.744a7.803 7.803 0 00-2.838 1.85A7.867 7.867 0 00.9 5.52C.506 6.539.231 7.702.156 9.402c-.081 1.713-.1 2.257-.1 6.601s.019 4.888.094 6.595c.075 1.7.35 2.869.744 3.882a7.895 7.895 0 001.85 2.838 7.867 7.867 0 002.832 1.844c1.019.394 2.182.669 3.882.744 1.706.075 2.25.094 6.595.094s4.888-.019 6.595-.094c1.7-.075 2.869-.35 3.882-.744a8.184 8.184 0 004.682-4.682c.394-1.019.669-2.182.744-3.882.075-1.707.094-2.251.094-6.595s-.006-4.888-.081-6.595zm-2.882 13.065c-.069 1.563-.331 2.407-.55 2.969a5.31 5.31 0 01-3.038 3.038c-.563.219-1.413.481-2.969.55-1.688.075-2.194.094-6.464.094s-4.782-.019-6.464-.094c-1.563-.069-2.407-.331-2.969-.55a4.926 4.926 0 01-1.838-1.194 4.974 4.974 0 01-1.194-1.838c-.219-.563-.481-1.413-.55-2.969-.075-1.688-.094-2.194-.094-6.464s.019-4.782.094-6.464c.069-1.563.331-2.407.55-2.969a4.868 4.868 0 011.2-1.838A4.974 4.974 0 016.639 3.55c.563-.219 1.413-.481 2.969-.55 1.688-.075 2.194-.094 6.464-.094 4.276 0 4.782.019 6.464.094 1.563.069 2.407.331 2.969.55a4.914 4.914 0 011.838 1.194 4.974 4.974 0 011.194 1.838c.219.563.481 1.413.55 2.969.075 1.688.094 2.194.094 6.464s-.019 4.77-.094 6.458z"/><path d="M16.059 7.783c-4.538 0-8.22 3.682-8.22 8.22s3.682 8.22 8.22 8.22c4.539 0 8.22-3.682 8.22-8.22s-3.682-8.22-8.22-8.22zm0 13.552a5.333 5.333 0 010-10.664 5.333 5.333 0 010 10.664zM26.524 7.458a1.919 1.919 0 11-3.838 0 1.919 1.919 0 013.838 0z"/></symbol><symbol id="icon-linkedin" viewBox="0 0 32 32"><path d="M31.992 32v-.001H32V20.263c0-5.741-1.236-10.164-7.948-10.164-3.227 0-5.392 1.771-6.276 3.449h-.093v-2.913h-6.364v21.364h6.627V21.42c0-2.785.528-5.479 3.977-5.479 3.399 0 3.449 3.179 3.449 5.657v10.401h6.62zM.528 10.636h6.635V32H.528V10.636zM3.843 0C1.722 0 0 1.721 0 3.843s1.721 3.879 3.843 3.879c2.121 0 3.843-1.757 3.843-3.879A3.846 3.846 0 003.843 0z"/></symbol><symbol id="icon-smartphone" viewBox="0 0 32 32"><path d="M23.467 0H8.534c-1.765 0-3.2 1.34-3.2 2.987v25.889c0 1.647 1.435 2.987 3.2 2.987h14.933c1.765 0 3.2-1.34 3.2-2.987V2.987c0-1.647-1.435-2.987-3.2-2.987zM8.533 1.991h14.933c.589 0 1.067.446 1.067.996v20.91H7.466V2.987c0-.549.478-.996 1.067-.996zm14.934 27.881H8.534c-.589 0-1.067-.446-1.067-.996v-2.987h17.067v2.987c0 .55-.478.996-1.067.996z"/><path d="M10.354 27.176c.417.389.417 1.02 0 1.409s-1.092.389-1.508 0c-.417-.389-.417-1.02 0-1.409s1.092-.389 1.508 0z"/></symbol><symbol id="icon-twitter" viewBox="0 0 32 32"><path d="M32 6.078c-1.19.522-2.458.868-3.78 1.036a6.523 6.523 0 002.886-3.626 13.11 13.11 0 01-4.16 1.588A6.574 6.574 0 0022.154 3c-3.632 0-6.556 2.948-6.556 6.562 0 .52.044 1.02.152 1.496-5.454-.266-10.28-2.88-13.522-6.862a6.605 6.605 0 00-.898 3.316 6.57 6.57 0 002.914 5.452 6.479 6.479 0 01-2.964-.808v.072c0 3.188 2.274 5.836 5.256 6.446a6.548 6.548 0 01-1.72.216 5.8 5.8 0 01-1.242-.112c.85 2.598 3.262 4.508 6.13 4.57a13.182 13.182 0 01-8.134 2.798c-.538 0-1.054-.024-1.57-.09A18.469 18.469 0 0010.064 29c12.072 0 18.672-10 18.672-18.668 0-.29-.01-.57-.024-.848A13.087 13.087 0 0032 6.078z"/></symbol><symbol id="icon-feature1" viewBox="0 0 32 32"><path fill="var(--color4, #212121)" d="M30.773 22.098l-8.443-8.505.937-4.615c.242.094.499.144.758.146h.006a2.159 2.159 0 10-2.008-1.435l-4.96.605L8.972.161a.534.534 0 00-.377-.16.532.532 0 00-.373.155L6.709 1.66a.534.534 0 000 .754l.814.826a14.943 14.943 0 002.519 17.663.513.513 0 00.146.098c-.034.18-.051.364-.052.547v6.187h-6.4a2.67 2.67 0 00-2.667 2.667v1.067c0 .295.239.533.533.533h24.533a.533.533 0 00.533-.533v-1.067a2.67 2.67 0 00-2.667-2.667h-6.4v-2.742a15.09 15.09 0 003.049.32 14.854 14.854 0 007.04-1.783l.818.823a.534.534 0 00.377.16.532.532 0 00.373-.155l1.513-1.504a.534.534 0 000-.754zM23.28 6.233a1.066 1.066 0 11.752 1.822h-.003a1.067 1.067 0 01-.747-1.823h-.002zm-1.256 3.505l-.598 2.946-1.175-1.182 1.774-1.763zm-.605-.902l-1.92 1.909-1.485-1.493 3.405-.415zM24.004 28.8a1.6 1.6 0 011.6 1.6v.533H2.137V30.4a1.6 1.6 0 011.6-1.6h20.267zm-7.467-2.133v1.067h-5.333v-1.067h5.333zM11.204 25.6v-4.053c0-1.294 1.196-2.347 2.667-2.347s2.667 1.053 2.667 2.347V25.6h-5.333zm6.4-1.696v-2.357c0-1.882-1.675-3.413-3.733-3.413a3.8 3.8 0 00-3.281 1.786A13.87 13.87 0 018.311 4.033l18.602 18.708a13.818 13.818 0 01-9.309 1.163zm11.289-.684L7.836 2.039l.755-.752 7.935 7.98c.004 0 .006.007.01.01l13.115 13.191-.757.752z"/><path fill="var(--color5, #2196f3)" d="M13.876 20.267h-.005a1.6 1.6 0 10-.004 3.2h.005a1.6 1.6 0 10.004-3.2zm.373 1.978a.534.534 0 11-.379-.911.532.532 0 01.373.911h.005z"/></symbol><symbol id="icon-feature2" viewBox="0 0 32 32"><path fill="var(--color4, #212121)" d="M31.297 15.301C31.295 6.849 24.442-.002 15.989 0S.686 6.855.688 15.308a15.304 15.304 0 0010.649 14.576.662.662 0 00.529-.065.637.637 0 00.283-.356l3.865-12.25a1.912 1.912 0 10-.84-3.635l-5.106-5.107a.637.637 0 00-.902.902l5.103 5.109a1.876 1.876 0 00.536 2.309l-3.683 11.673C3.844 25.783.118 17.71 2.799 10.432S13.553-.572 20.831 2.109s11.004 10.754 8.323 18.032a14.042 14.042 0 01-7.462 7.973l-.398-1.874a.638.638 0 00-1.048-.344l-3.837 3.426a.637.637 0 00.231 1.084l4.899 1.563a.638.638 0 00.819-.74l-.391-1.839a15.255 15.255 0 009.329-14.089zm-15.305-.637a.638.638 0 110 1.277.638.638 0 010-1.277zm2.101 14.864l2.184-1.948.603 2.84-2.787-.892z"/><path fill="var(--color5, #2196f3)" d="M15.354 3.185V4.46a.638.638 0 101.276 0V3.185a.638.638 0 00-1.276 0zM3.876 14.664a.638.638 0 000 1.276h1.275a.638.638 0 100-1.276H3.876zM28.108 15.939a.638.638 0 100-1.276h-1.275a.638.638 0 000 1.276h1.275z"/></symbol><symbol id="icon-feature3" viewBox="0 0 32 32"><path fill="var(--color5, #2196f3)" d="M14.925 14.965h1.066v4.798h-1.066v-4.797zM19.19 17.097h1.066v2.665H19.19v-2.665zM10.661 18.696h1.066v1.066h-1.066v-1.066zM7.463 18.163h1.066v1.599H7.463v-1.599z"/><path fill="var(--color4, #212121)" d="M1.599 28.291h25.587a1.6 1.6 0 001.599-1.599V24.56a1.6 1.6 0 00-1.599-1.599h-.533V9.668L29.681 6.8a1.608 1.608 0 10-.746-.763L26.654 8.2V6.97a1.6 1.6 0 00-1.599-1.599H3.733A1.6 1.6 0 002.134 6.97v15.992h-.533a1.6 1.6 0 00-1.599 1.599v2.132a1.6 1.6 0 001.599 1.599zM30.384 4.837a.533.533 0 110 1.067.533.533 0 010-1.067zM3.198 6.969c0-.294.239-.533.533-.533h21.322c.294 0 .533.239.533.533v2.239l-1.066 1.013V8.035a.533.533 0 00-.533-.533H4.797a.533.533 0 00-.533.533v13.326c0 .294.239.533.533.533h19.19a.533.533 0 00.533-.533v-9.674l1.066-1.01v12.284H3.198V6.969zm4.798 6.929a1.598 1.598 0 101.107 2.749l1.853.93a.532.532 0 00.636-.123l3.939-4.431 3.872 2.901a.533.533 0 00.686-.039l3.365-3.188v8.131H5.33V8.568h18.124v2.66L19.683 14.8l-3.904-2.927a.533.533 0 00-.718.072l-3.993 4.493-1.493-.746c.011-.064.018-.129.02-.193A1.6 1.6 0 007.996 13.9zm.533 1.6a.533.533 0 11-1.067 0 .533.533 0 011.067 0zm3.198 8.528h5.331v.533a.533.533 0 01-.533.533h-4.264a.533.533 0 01-.533-.533v-.533zm-10.661.534c0-.294.239-.533.533-.533h9.062v.533a1.6 1.6 0 001.599 1.599h4.264a1.6 1.6 0 001.599-1.599v-.533h9.062c.294 0 .533.239.533.533v2.132a.533.533 0 01-.533.533H1.598a.533.533 0 01-.533-.533V24.56z"/></symbol><symbol id="icon-feature4" viewBox="0 0 32 32"><path fill="var(--color5, #2196f3)" d="M31.974 4.524a.534.534 0 00-.43-.363l-1.91-.278-.855-1.731c-.179-.365-.777-.365-.956 0l-.855 1.731-1.91.278a.535.535 0 00-.296.91l1.383 1.348-.326 1.903c-.034.2.048.402.212.522a.53.53 0 00.562.04l1.709-.899 1.709.899a.536.536 0 00.775-.563l-.326-1.903 1.383-1.348a.536.536 0 00.135-.547zm-2.463 1.327a.534.534 0 00-.153.472l.191 1.114-1-.526a.533.533 0 00-.498 0l-1.001.526.191-1.114a.534.534 0 00-.153-.472l-.81-.789 1.119-.163a.532.532 0 00.402-.292l.5-1.013.5 1.013a.535.535 0 00.402.292l1.119.163-.809.789zM26.133 20.522h-1.067v1.067h1.067v-1.067zM26.133 22.656h-1.067v1.067h1.067v-1.067zM27.2 21.589h-1.067v1.067H27.2v-1.067zM25.067 21.589H24v1.067h1.067v-1.067zM22.4 26.389h-1.067v1.067H22.4v-1.067zM22.4 28.522h-1.067v1.067H22.4v-1.067zM23.467 27.456H22.4v1.067h1.067v-1.067zM21.333 27.456h-1.067v1.067h1.067v-1.067zM16 24.256h-1.067v1.067H16v-1.067zM16 26.389h-1.067v1.067H16v-1.067zM17.067 25.322H16v1.067h1.067v-1.067zM14.933 25.322h-1.067v1.067h1.067v-1.067zM5.866 6.122H4.799v1.067h1.067V6.122zM5.866 8.255H4.799v1.067h1.067V8.255z"/><path fill="var(--color5, #2196f3)" d="M6.933 7.189H5.866v1.067h1.067V7.189zM4.8 7.189H3.733v1.067H4.8V7.189z"/><path fill="var(--color4, #212121)" d="M24.715 14.159a1.775 1.775 0 00-1.188-.705 1.778 1.778 0 00-1.34.352l-1.252.96-1.898 1.417-1.358-.541c2.421-1.086 4.114-3.508 4.114-6.32 0-3.823-3.123-6.933-6.961-6.933s-6.961 3.11-6.961 6.933a6.86 6.86 0 001.12 3.758l-2.764-.024h-.005c-.009 0-.015.004-.023.005a.515.515 0 00-.155.031l-.038.013c-.006.003-.013.003-.019.006l-3.233 1.596-.001.001-1.893.911a.397.397 0 00-.063.035 1.779 1.779 0 00-.598 2.295c.22.429.595.745 1.056.889a1.776 1.776 0 001.378-.128l1.388-.738 2.264-1.169 1.357-.008L2.2 22.211l-.002.001-1.339 1.333c-.316.315-.49.732-.49 1.178s.174.863.49 1.179c.325.323.752.485 1.179.485s.854-.162 1.18-.485l1.314-1.309 1.741-1.3.901.897-1.762 1.754-.002.001-1.339 1.333c-.316.315-.49.732-.49 1.178s.174.863.49 1.179c.325.323.753.485 1.18.485s.855-.162 1.18-.485l3.482-3.467.001-.002 1.01-1-.004-.004c.006-.006.015-.009.022-.015l5.166-5.658 3.471.494a.52.52 0 00.262-.033c.018-.006.033-.015.05-.023.019-.01.039-.015.058-.027l3.213-2.133c.012-.008.018-.021.029-.029.013-.01.029-.014.041-.026l1.271-1.191c.662-.62.753-1.635.212-2.362zM2.13 17.77a.714.714 0 01-.558.052.717.717 0 01-.213-1.26l1.314-.632.449 1.312-.992.527zm3.498-1.828l-1.548.8-.439-1.283 2.027-1.001-.04 1.484zm15.099-6.62a5.79 5.79 0 01-.599 2.559l-4.181-1.899a1.863 1.863 0 00-.788-1.388l1.464-4.86c2.378.756 4.105 2.974 4.105 5.588zm-11.789 0c0-3.235 2.644-5.867 5.894-5.867.253 0 .5.021.745.052l-1.432 4.754c-.019-.001-.037-.006-.057-.006-1.033 0-1.873.837-1.873 1.867s.84 1.867 1.873 1.867c.694 0 1.294-.383 1.618-.945l3.862 1.755a5.894 5.894 0 01-4.737 2.39c-3.25 0-5.894-2.632-5.894-5.867zm5.956.8c0 .441-.362.8-.806.8s-.806-.359-.806-.8c0-.441.362-.8.806-.8s.806.359.806.8zM2.465 25.146a.608.608 0 01-.854.001.592.592 0 010-.844l.962-.958.851.848-.959.955zm3.214 3.734a.608.608 0 01-.855.001.592.592 0 010-.844l.963-.959.852.848-.96.955zm3.481-3.469l-.002.001-1.765 1.76-.852-.848 1.763-1.755.002-.001c.04-.04.065-.088.09-.135.007-.014.02-.026.026-.04.017-.041.019-.085.026-.129.003-.025.014-.047.014-.073 0-.036-.013-.07-.02-.106-.006-.032-.006-.065-.019-.095a.55.55 0 00-.091-.138c-.01-.012-.014-.027-.025-.038h-.001l-.001-.002-1.607-1.6c-.017-.017-.039-.024-.058-.038a.507.507 0 00-.087-.058.515.515 0 00-.093-.033.507.507 0 00-.103-.02.5.5 0 00-.095.005.53.53 0 00-.104.02.477.477 0 00-.094.045c-.02.011-.042.015-.061.029L4.23 23.486l-.901-.897 2.399-2.386 4.361 4.289-.928.919zm6.819-7.017c-.015-.002-.03.004-.045.003a.556.556 0 00-.3.075.492.492 0 00-.083.061c-.013.011-.028.017-.04.029l-4.698 5.146-4.328-4.257 2.833-2.818a.534.534 0 00-.379-.911v-.001l-2.219.013.028-1.607 3.104.027a6.947 6.947 0 004.981 2.101c.437 0 .864-.045 1.279-.123.04.032.079.065.13.085l2.41.96.152.758.178.885-3.003-.427zm4.041.178l-.313-1.558 1.446-1.08.947 1.257-2.08 1.381zm3.754-2.831l-.838.785-.931-1.236.831-.637a.735.735 0 01.543-.143.718.718 0 01.48.284.713.713 0 01-.085.947z"/><path fill="var(--color4, #212121)" d="M13.602 18.544l-2.143-2.133a.534.534 0 00-.753 0l-2.142 2.133a.537.537 0 000 .756l2.142 2.133a.536.536 0 00.753 0l2.143-2.133a.535.535 0 000-.756zm-2.519 1.759l-1.387-1.381 1.387-1.381 1.387 1.381-1.387 1.381zM17.164 5.071l-.258 1.036c.071.018 1.738.452 1.738 2.149h1.067c0-2.017-1.666-2.965-2.547-3.185zM19.711 9.322h-1.067v1.067h1.067V9.322z"/></symbol><symbol id="icon-modal-name"><path d="M9 9a3 3 0 100-6 3 3 0 100 6zm0 1.5c-2.003 0-6 1.005-6 3v.75c0 .412.337.75.75.75h10.5c.412 0 .75-.338.75-.75v-.75c0-1.995-3.998-3-6-3z"/></symbol><symbol id="icon-modal-email"> <path d="M15 3H3c-.825 0-1.492.675-1.492 1.5l-.008 9c0 .825.675 1.5 1.5 1.5h12c.825 0 1.5-.675 1.5-1.5v-9c0-.825-.675-1.5-1.5-1.5zm-.3 3.188L9.398 9.502a.759.759 0 01-.796 0L3.3 6.188a.637.637 0 11.675-1.08L9 8.25l5.025-3.143a.637.637 0 11.675 1.08z"/></symbol><symbol id="icon-modal-phone"> <path d="M13.996 11.123l-1.838-.21a1.44 1.44 0 00-1.187.412l-1.332 1.332a10.888 10.888 0 01-4.769-4.77L6.21 6.55a1.44 1.44 0 00.413-1.187l-.21-1.824a1.448 1.448 0 00-1.44-1.28H3.72c-.818 0-1.498.68-1.448 1.497.384 6.18 5.326 11.116 11.5 11.5.817.05 1.498-.63 1.498-1.448v-1.252a1.434 1.434 0 00-1.274-1.432z"/></symbol></defs></svg>