<svg width="170" height="90" fill="none" xmlns="http://www.w3.org/2000/svg"><rect x=".5" y=".5" width="169" height="89" rx="3.5" stroke="#AFB1B8"/><path d="M60.488 61.278c.23.285.352.643.346 1.01a1.605 1.605 0 01-.537 1.277c-.446.339-1 .504-1.558.466H56v-6.405h2.683a2.285 2.285 0 011.487.426 1.463 1.463 0 01.52 1.198c.016.353-.095.7-.311.98-.209.254-.496.43-.817.5.364.067.692.26.926.548zm-3.213-.967h1.147c.26.02.519-.056.729-.213a.76.76 0 00.246-.626.787.787 0 00-.243-.626 1.106 1.106 0 00-.751-.215h-1.128v1.68zm1.988 2.456a.795.795 0 00.271-.65.81.81 0 00-.277-.658 1.181 1.181 0 00-.78-.231h-1.202v1.761h1.218c.274.016.546-.062.77-.222zM65.972 64.031l-1.492-2.503h-.561v2.503h-1.284v-6.405h2.43a2.39 2.39 0 011.693.545 2.047 2.047 0 01.18 2.65c-.3.345-.709.575-1.159.65l1.59 2.56h-1.397zm-2.053-3.376h1.05c.73 0 1.094-.323 1.094-.97a.956.956 0 00-.268-.72 1.134 1.134 0 00-.826-.26h-1.063l.013 1.95zM72.99 62.742h-2.558l-.452 1.29h-1.346l2.35-6.334h1.455l2.34 6.333h-1.346l-.443-1.289zm-.342-.97l-.935-2.703-.935 2.703h1.87zM81.776 64.031H80.5l-2.857-4.355v4.355h-1.272v-6.405h1.272l2.857 4.38v-4.38h1.275v6.405zM89.05 62.498a2.757 2.757 0 01-1.153 1.13c-.555.281-1.17.42-1.792.403h-2.27v-6.405h2.27a3.816 3.816 0 011.792.395c.487.246.89.636 1.153 1.117a3.735 3.735 0 010 3.36zm-1.459-.153a2.352 2.352 0 000-3.057 2.21 2.21 0 00-1.595-.545h-.885v4.146h.885a2.21 2.21 0 001.595-.544zM73.789 22S90.24 28.236 89.89 37.26v15.263s-16.439-6.24-16.096-15.263L73.789 22zM104.547 48.95A22.485 22.485 0 01115 45.082v-4.778a21.467 21.467 0 00-10.453 8.646z" fill="#AFB1B8"/><path d="M102.681 50.389A22.383 22.383 0 01115 39.303V25.536s-23.43 8.883-22.934 21.733V69s1.044-.397 2.687-1.142c0-.695 0-1.396.075-2.1a22.605 22.605 0 017.853-15.369z" fill="#AFB1B8"/><path d="M100.453 58.462c.123-1.507.397-2.998.819-4.45a21.042 21.042 0 00-4.961 13.126 67.875 67.875 0 004.506-2.384 22.555 22.555 0 01-.364-6.292zM101.385 58.54a21.593 21.593 0 00.289 5.698c6.402-3.846 13.594-9.788 13.317-16.969v-.625a20.97 20.97 0 00-12.179 5.713 21.477 21.477 0 00-1.427 6.183z" fill="#AFB1B8"/></svg>