<svg width="170" height="90" fill="none" xmlns="http://www.w3.org/2000/svg"><rect x=".5" y=".5" width="169" height="89" rx="3.5" stroke="#AFB1B8"/><path d="M71.346 65.795a.117.117 0 01.08.034l.205.216c-.16.174-.357.314-.579.409-.26.104-.539.154-.82.147a2.01 2.01 0 01-.772-.137 1.671 1.671 0 01-.957-.986 2.163 2.163 0 01-.13-.767 2.016 2.016 0 01.14-.77c.09-.222.226-.425.4-.597.175-.17.385-.302.617-.39.253-.094.523-.14.794-.137.253-.006.504.036.739.125.203.084.39.2.553.345l-.173.23a.173.173 0 01-.043.042.11.11 0 01-.07.018.157.157 0 01-.074-.025l-.093-.061-.129-.079a1.401 1.401 0 00-.406-.137 1.642 1.642 0 00-.306-.024 1.533 1.533 0 00-.571.102 1.29 1.29 0 00-.448.29c-.128.133-.227.29-.29.46-.073.196-.108.401-.106.608-.003.21.033.42.106.618.063.169.16.325.285.458.118.125.264.222.427.284.168.067.348.1.53.099.105.001.21-.005.314-.02.17-.02.332-.076.476-.164.072-.046.14-.096.203-.152a.153.153 0 01.098-.04zM77.287 64.71c.003.26-.044.52-.139.763a1.655 1.655 0 01-.387.592 1.754 1.754 0 01-.608.388 2.296 2.296 0 01-1.564 0 1.778 1.778 0 01-.605-.39 1.74 1.74 0 01-.39-.597 2.166 2.166 0 010-1.527c.087-.223.22-.427.39-.6a1.78 1.78 0 01.605-.375 2.258 2.258 0 011.564 0c.228.088.435.22.607.39.17.17.301.37.388.59.096.245.143.505.14.767zm-.54 0a1.759 1.759 0 00-.098-.612 1.208 1.208 0 00-.71-.747 1.658 1.658 0 00-1.137 0 1.207 1.207 0 00-.712.747c-.13.4-.13.827 0 1.225a1.203 1.203 0 00.712.745c.367.131.77.131 1.137 0 .166-.063.314-.161.435-.286.123-.134.217-.29.275-.459.07-.197.102-.404.098-.612zM81.34 65.353l.055.137c.02-.049.038-.093.059-.137a1.32 1.32 0 01.067-.135l1.314-2.276c.026-.04.049-.064.075-.071a.322.322 0 01.108-.012h.388v3.702h-.46V63.84v-.115a1.085 1.085 0 010-.128l-1.322 2.309a.202.202 0 01-.078.084.216.216 0 01-.113.03h-.074c-.04.001-.08-.01-.113-.03a.2.2 0 01-.078-.084l-1.36-2.324v2.973h-.445v-3.695h.388a.322.322 0 01.108.012.15.15 0 01.072.071l1.343 2.279a.805.805 0 01.067.132zM86.287 65.17v1.386h-.515V62.86h1.148a2.25 2.25 0 01.64.08c.167.045.321.124.453.23.114.1.202.225.257.363.06.151.09.312.088.473.002.163-.03.323-.096.473a1.012 1.012 0 01-.278.37 1.27 1.27 0 01-.455.245c-.2.061-.41.09-.62.086l-.622-.01zm0-.398h.622c.136.002.27-.017.399-.056a.843.843 0 00.288-.16.651.651 0 00.175-.244.768.768 0 00.062-.312.677.677 0 00-.052-.3.707.707 0 00-.18-.253 1.033 1.033 0 00-.692-.199h-.622v1.524zM93.2 66.561h-.406a.181.181 0 01-.113-.034.226.226 0 01-.067-.086l-.35-.894h-1.756l-.363.894a.2.2 0 01-.064.083.18.18 0 01-.116.037h-.406l1.543-3.703h.535l1.564 3.703zm-2.546-1.375h1.451l-.612-1.507a2.614 2.614 0 01-.116-.348l-.06.194a1.842 1.842 0 01-.056.157l-.607 1.504zM95.423 62.875c.031.017.058.04.078.067l2.25 2.79v-.129-2.745h.46v3.703h-.257a.23.23 0 01-.105-.022.283.283 0 01-.082-.069l-2.248-2.788c.002.042.002.085 0 .127v2.753h-.46v-3.704h.272c.032 0 .063.005.092.017zM102.003 65.088v1.47h-.515v-1.47l-1.422-2.23h.46a.174.174 0 01.111.032.315.315 0 01.069.084l.89 1.438c.036.061.067.118.093.172.026.053.046.105.064.156l.067-.159c.025-.058.054-.115.088-.169l.877-1.448a.362.362 0 01.067-.079.16.16 0 01.11-.036h.466l-1.425 2.24zM81.086 56.644c.224.027.45.05.679.069 3.47-1.48 6.407-3.9 8.441-6.96 2.034-3.06 3.077-6.624 2.997-10.246l-3.825-3.644a20.22 20.22 0 01-1.05 11.512c-1.465 3.67-3.972 6.88-7.242 9.27z" fill="#AFB1B8"/><path d="M79.72 56.475l.103.02c3.494-2.382 6.158-5.707 7.648-9.546a19.54 19.54 0 00.706-11.99l-5.447-5.19a24.082 24.082 0 012.557 13.768c-.532 4.728-2.463 9.214-5.567 12.938zM98.196 43.786c-.926 3.98-3.174 7.568-6.41 10.234a20.213 20.213 0 01-3.045 2.082 18.187 18.187 0 007.08-3.813 17.079 17.079 0 004.584-6.4l-2.21-2.103z" fill="#AFB1B8"/><path d="M97.33 43.2l-3.147-2.997a18.475 18.475 0 01-2.952 9.67c-1.873 2.916-4.532 5.299-7.699 6.903h.016c.705 0 1.41-.04 2.111-.12a19.338 19.338 0 007.611-5.33 18.093 18.093 0 004.06-8.126zM80.176 27.58L76.423 24c-3.355 1.235-6.24 3.406-8.278 6.23-2.038 2.823-3.135 6.167-3.145 9.593.013 3.787 1.35 7.46 3.801 10.441 2.451 2.98 5.875 5.097 9.731 6.015 3.442-3.995 5.457-8.932 5.753-14.093.295-5.161-1.144-10.277-4.11-14.606zM106 42.649c-.013-4.492-1.892-8.797-5.227-11.973-3.334-3.177-7.852-4.967-12.567-4.98-2.179-.002-4.339.381-6.371 1.13l22.977 21.89A16.054 16.054 0 00106 42.65z" fill="#AFB1B8"/></svg>